<svg width="35" height="38" viewBox="0 0 35 38" fill="none" xmlns="http://www.w3.org/2000/svg">
<path d="M24.7312 12.0545C23.6 11.1888 20.835 9.76652 17.4688 9.76652C14.0053 9.76652 11.53 10.7925 10.0632 12.0545M22.4772 28.4958L23.5923 30.7078C23.5923 30.7078 28.9253 29.9758 32.4375 25.855C31.8395 15.766 28.3552 10.6264 28.3552 10.6264C28.3552 10.6264 25.2355 7.23391 21.5512 6.94873L20.3767 9.95598M6.58233 24.4707C8.7855 26.1666 12.1105 27.9318 17.4687 27.9318C22.8268 27.9318 26.1518 26.1666 28.355 24.4707M14.6468 9.95598L13.3863 6.94873C9.521 7.32041 6.58233 10.6264 6.58233 10.6264C6.58233 10.6264 3.098 15.766 2.5 25.855C6.01217 29.9756 11.3452 30.7078 11.3452 30.7078L12.4603 28.4958M12.5995 22.3138C11.1515 22.3138 9.97767 21.0741 9.97767 19.5448C9.97767 18.0156 11.1515 16.7761 12.5995 16.7761C14.0475 16.7761 15.2213 18.0158 15.2213 19.545C15.2213 21.0742 14.0475 22.3138 12.5995 22.3138ZM22.338 22.3138C20.89 22.3138 19.7162 21.0741 19.7162 19.5448C19.7162 18.0156 20.89 16.7759 22.338 16.7759C23.786 16.7759 24.9598 18.0156 24.9598 19.5448C24.9598 21.0741 23.786 22.3138 22.338 22.3138Z" stroke="#434A54" stroke-width="1.1204" stroke-miterlimit="1" stroke-linecap="round" stroke-linejoin="round"/>
</svg>
