<svg width="35" height="38" viewBox="0 0 35 38" fill="none" xmlns="http://www.w3.org/2000/svg">
<path d="M5.10416 31.6666C4.52082 31.6666 4.01041 31.4291 3.57291 30.9541C3.13541 30.4791 2.91666 29.9249 2.91666 29.2916V8.70825C2.91666 8.07492 3.13541 7.52075 3.57291 7.04575C4.01041 6.57075 4.52082 6.33325 5.10416 6.33325H29.8958C30.4792 6.33325 30.9896 6.57075 31.4271 7.04575C31.8646 7.52075 32.0833 8.07492 32.0833 8.70825V29.2916C32.0833 29.9249 31.8646 30.4791 31.4271 30.9541C30.9896 31.4291 30.4792 31.6666 29.8958 31.6666H5.10416ZM17.5 19.7124L5.10416 10.8853V29.2916H29.8958V10.8853L17.5 19.7124ZM17.5 17.3374L29.75 8.70825H5.28645L17.5 17.3374ZM5.10416 10.8853V8.70825V29.2916V10.8853Z" fill="black"/>
</svg>
