<svg width="54" height="38" viewBox="0 0 54 38" fill="none" xmlns="http://www.w3.org/2000/svg">
<path d="M43.8139 4.74514C43.2493 4.76369 42.7175 4.87966 42.2449 5.00954H42.2383C41.7591 5.14406 39.4811 5.82131 36.0214 6.84645C32.5617 7.87624 28.0713 9.21218 23.6138 10.5388C14.7118 13.1875 5.96089 15.7945 5.96089 15.7945L6.06593 15.7666C6.06593 15.7666 5.46196 15.9058 4.83173 16.2119C4.51006 16.3604 4.15555 16.5645 3.847 16.8845C3.53846 17.2046 3.28899 17.6963 3.3809 18.2019C3.53189 19.0601 4.31967 19.575 4.88425 19.8579C5.4554 20.1455 6.00028 20.28 6.00028 20.28H6.01341L14.2195 22.2329C14.5871 23.0679 16.7207 28.022 17.2328 29.1631C17.5347 29.845 17.8302 30.2717 18.1978 30.5965C18.375 30.7634 18.5851 30.9026 18.8346 31.0139C18.9331 31.0557 19.0381 31.0882 19.1431 31.116C19.1759 31.1299 19.2088 31.1345 19.2482 31.1392L19.1628 31.1253C19.1891 31.1299 19.2088 31.1438 19.2285 31.1485C19.2941 31.1624 19.3401 31.167 19.4254 31.1763C20.7253 31.4546 21.7691 30.884 21.7691 30.884L21.8282 30.8516L26.673 27.7344L34.7938 32.1365L34.9776 32.1922C36.6713 32.7163 38.3847 32.4241 39.2907 31.9092C40.2032 31.3897 40.5577 30.7263 40.5577 30.7263L40.6168 30.6196L46.8928 7.90407C47.07 7.34279 47.116 6.81862 46.919 6.30837C46.7221 5.79812 46.2166 5.32033 45.6061 5.0652C44.989 4.80544 44.3784 4.72658 43.8139 4.74514ZM43.6432 7.18044C43.6366 7.25466 43.6563 7.24538 43.6104 7.38918V7.40309L37.3934 29.8821C37.3672 29.9146 37.3212 29.9841 37.1965 30.0537C37.0652 30.1279 36.9602 30.1743 36.4153 30.0213L26.4826 24.6404L20.4824 28.5044L21.7428 22.8174C21.7428 22.8174 37.3015 12.5706 37.9711 12.1299C38.6408 11.6892 38.4176 11.5965 38.4176 11.5965C38.4635 11.0584 37.4066 11.4387 37.4066 11.4387L16.9439 20.396L16.9373 20.3728L7.12943 18.0396V18.0349C7.12287 18.0349 7.10974 18.0303 7.10317 18.0303C7.10974 18.0303 7.15569 18.0164 7.15569 18.0164L7.20821 17.9978L7.26073 17.9839C7.26073 17.9839 16.0183 15.377 24.9202 12.7283C29.3777 11.4016 33.8681 10.0657 37.3212 9.03591C40.7743 8.01076 43.3281 7.2593 43.4725 7.21755C43.6104 7.18044 43.5447 7.18044 43.6432 7.18044Z" fill="black"/>
</svg>
